<svg id="objects" xmlns="http://www.w3.org/2000/svg" viewBox="0 0 800 800"><defs><style>.cls-1{fill:#ffde17;}.cls-2{fill:#231804;}</style></defs><title>kedai_fesyen_icon</title><rect class="cls-1" x="150" y="150" width="500" height="500" rx="250"/><path class="cls-2" d="M484.29,496.88a9.81,9.81,0,0,1-9.05-6c-.78-1.82-18.57-42-75.24-42s-74.51,40.27-75.24,42a9.8,9.8,0,0,1-18.11-7.52c.9-2.21,23.08-54.09,93.35-54.09s92.45,51.88,93.36,54.09a9.81,9.81,0,0,1-9.07,13.54Z"/><path class="cls-2" d="M346.08,395.06a9.77,9.77,0,0,1-6.94-2.87l-46-46A9.81,9.81,0,0,1,307,332.34l46,46a9.81,9.81,0,0,1-6.93,16.74Z"/><path class="cls-2" d="M300.09,395.06a9.81,9.81,0,0,1-6.93-16.74l46-46A9.81,9.81,0,0,1,353,346.21l-46,46A9.77,9.77,0,0,1,300.09,395.06Z"/><path class="cls-2" d="M499.9,395.06a9.75,9.75,0,0,1-6.93-2.87l-46-46a9.81,9.81,0,0,1,13.87-13.87l46,46a9.81,9.81,0,0,1-6.94,16.74Z"/><path class="cls-2" d="M453.92,395.06A9.81,9.81,0,0,1,447,378.32l46-46a9.81,9.81,0,0,1,13.87,13.87l-46,46A9.77,9.77,0,0,1,453.92,395.06Z"/></svg>